<svg id="mermaid-svg" width="100%" xmlns="http://www.w3.org/2000/svg" class="classDiagram" style="max-width: 2410.1015625px;" viewBox="0 0 2410.1015625 462" role="graphics-document document" aria-roledescription="class" xmlns:xlink="http://www.w3.org/1999/xlink"><style xmlns="http://www.w3.org/1999/xhtml">@import url("https://cdnjs.cloudflare.com/ajax/libs/font-awesome/6.7.2/css/all.min.css");</style><style>#mermaid-svg{font-family:"trebuchet ms",verdana,arial,sans-serif;font-size:16px;fill:#333;}@keyframes edge-animation-frame{from{stroke-dashoffset:0;}}@keyframes dash{to{stroke-dashoffset:0;}}#mermaid-svg .edge-animation-slow{stroke-dasharray:9,5!important;stroke-dashoffset:900;animation:dash 50s linear infinite;stroke-linecap:round;}#mermaid-svg .edge-animation-fast{stroke-dasharray:9,5!important;stroke-dashoffset:900;animation:dash 20s linear infinite;stroke-linecap:round;}#mermaid-svg .error-icon{fill:#552222;}#mermaid-svg .error-text{fill:#552222;stroke:#552222;}#mermaid-svg .edge-thickness-normal{stroke-width:1px;}#mermaid-svg .edge-thickness-thick{stroke-width:3.5px;}#mermaid-svg .edge-pattern-solid{stroke-dasharray:0;}#mermaid-svg .edge-thickness-invisible{stroke-width:0;fill:none;}#mermaid-svg .edge-pattern-dashed{stroke-dasharray:3;}#mermaid-svg .edge-pattern-dotted{stroke-dasharray:2;}#mermaid-svg .marker{fill:#333333;stroke:#333333;}#mermaid-svg .marker.cross{stroke:#333333;}#mermaid-svg svg{font-family:"trebuchet ms",verdana,arial,sans-serif;font-size:16px;}#mermaid-svg p{margin:0;}#mermaid-svg g.classGroup text{fill:#9370DB;stroke:none;font-family:"trebuchet ms",verdana,arial,sans-serif;font-size:10px;}#mermaid-svg g.classGroup text .title{font-weight:bolder;}#mermaid-svg .cluster-label text{fill:#333;}#mermaid-svg .cluster-label span{color:#333;}#mermaid-svg .cluster-label span p{background-color:transparent;}#mermaid-svg .cluster rect{fill:#ffffde;stroke:#aaaa33;stroke-width:1px;}#mermaid-svg .cluster text{fill:#333;}#mermaid-svg .cluster span{color:#333;}#mermaid-svg .nodeLabel,#mermaid-svg .edgeLabel{color:#131300;}#mermaid-svg .noteLabel .nodeLabel,#mermaid-svg .noteLabel .edgeLabel{color:black;}#mermaid-svg .edgeLabel .label rect{fill:#ECECFF;}#mermaid-svg .label text{fill:#131300;}#mermaid-svg .labelBkg{background:#ECECFF;}#mermaid-svg .edgeLabel .label span{background:#ECECFF;}#mermaid-svg .classTitle{font-weight:bolder;}#mermaid-svg .node rect,#mermaid-svg .node circle,#mermaid-svg .node ellipse,#mermaid-svg .node polygon,#mermaid-svg .node path{fill:#ECECFF;stroke:#9370DB;stroke-width:1;}#mermaid-svg .divider{stroke:#9370DB;stroke-width:1;}#mermaid-svg g.clickable{cursor:pointer;}#mermaid-svg g.classGroup rect{fill:#ECECFF;stroke:#9370DB;}#mermaid-svg g.classGroup line{stroke:#9370DB;stroke-width:1;}#mermaid-svg .classLabel .box{stroke:none;stroke-width:0;fill:#ECECFF;opacity:0.5;}#mermaid-svg .classLabel .label{fill:#9370DB;font-size:10px;}#mermaid-svg .relation{stroke:#333333;stroke-width:1;fill:none;}#mermaid-svg .dashed-line{stroke-dasharray:3;}#mermaid-svg .dotted-line{stroke-dasharray:1 2;}#mermaid-svg [id$="-compositionStart"],#mermaid-svg .composition{fill:#333333!important;stroke:#333333!important;stroke-width:1;}#mermaid-svg [id$="-compositionEnd"],#mermaid-svg .composition{fill:#333333!important;stroke:#333333!important;stroke-width:1;}#mermaid-svg [id$="-dependencyStart"],#mermaid-svg .dependency{fill:#333333!important;stroke:#333333!important;stroke-width:1;}#mermaid-svg [id$="-dependencyEnd"],#mermaid-svg .dependency{fill:#333333!important;stroke:#333333!important;stroke-width:1;}#mermaid-svg [id$="-extensionStart"],#mermaid-svg .extension{fill:transparent!important;stroke:#333333!important;stroke-width:1;}#mermaid-svg [id$="-extensionEnd"],#mermaid-svg .extension{fill:transparent!important;stroke:#333333!important;stroke-width:1;}#mermaid-svg [id$="-aggregationStart"],#mermaid-svg .aggregation{fill:transparent!important;stroke:#333333!important;stroke-width:1;}#mermaid-svg [id$="-aggregationEnd"],#mermaid-svg .aggregation{fill:transparent!important;stroke:#333333!important;stroke-width:1;}#mermaid-svg [id$="-lollipopStart"],#mermaid-svg .lollipop{fill:#ECECFF!important;stroke:#333333!important;stroke-width:1;}#mermaid-svg [id$="-lollipopEnd"],#mermaid-svg .lollipop{fill:#ECECFF!important;stroke:#333333!important;stroke-width:1;}#mermaid-svg .edgeTerminals{font-size:11px;line-height:initial;}#mermaid-svg .classTitleText{text-anchor:middle;font-size:18px;fill:#333;}#mermaid-svg .edgeLabel[data-look="neo"]{background-color:rgba(232,232,232, 0.8);text-align:center;}#mermaid-svg .edgeLabel[data-look="neo"] p{background-color:rgba(232,232,232, 0.8);}#mermaid-svg .edgeLabel[data-look="neo"] rect{opacity:0.5;background-color:rgba(232,232,232, 0.8);fill:rgba(232,232,232, 0.8);}#mermaid-svg .label-icon{display:inline-block;height:1em;overflow:visible;vertical-align:-0.125em;}#mermaid-svg .node .label-icon path{fill:currentColor;stroke:revert;stroke-width:revert;}#mermaid-svg .node .neo-node{stroke:#9370DB;}#mermaid-svg [data-look="neo"].node rect,#mermaid-svg [data-look="neo"].cluster rect,#mermaid-svg [data-look="neo"].node polygon{stroke:#9370DB;filter:drop-shadow(1px 2px 2px rgba(185, 185, 185, 1));}#mermaid-svg [data-look="neo"].swimlane.cluster rect{filter:none;}#mermaid-svg [data-look="neo"].node path{stroke:#9370DB;stroke-width:1px;}#mermaid-svg [data-look="neo"].node .outer-path{filter:drop-shadow(1px 2px 2px rgba(185, 185, 185, 1));}#mermaid-svg [data-look="neo"].node .neo-line path{stroke:#9370DB;filter:none;}#mermaid-svg [data-look="neo"].node circle{stroke:#9370DB;filter:drop-shadow(1px 2px 2px rgba(185, 185, 185, 1));}#mermaid-svg [data-look="neo"].node circle .state-start{fill:#000000;}#mermaid-svg [data-look="neo"].icon-shape .icon{fill:#9370DB;filter:drop-shadow(1px 2px 2px rgba(185, 185, 185, 1));}#mermaid-svg [data-look="neo"].icon-shape .icon-neo path{stroke:#9370DB;filter:drop-shadow(1px 2px 2px rgba(185, 185, 185, 1));}#mermaid-svg :root{--mermaid-font-family:"trebuchet ms",verdana,arial,sans-serif;}</style><g><defs><marker id="mermaid-svg_class-aggregationStart" class="marker aggregation class" refX="18" refY="7" markerWidth="190" markerHeight="240" orient="auto"><path d="M 18,7 L9,13 L1,7 L9,1 Z"/></marker></defs><defs><marker id="mermaid-svg_class-aggregationEnd" class="marker aggregation class" refX="1" refY="7" markerWidth="20" markerHeight="28" orient="auto"><path d="M 18,7 L9,13 L1,7 L9,1 Z"/></marker></defs><defs><marker id="mermaid-svg_class-aggregationStart-margin" class="marker aggregation class" refX="15" refY="7" markerWidth="190" markerHeight="240" orient="auto" markerUnits="userSpaceOnUse"><path d="M 18,7 L9,13 L1,7 L9,1 Z" style="stroke-width: 2;"/></marker></defs><defs><marker id="mermaid-svg_class-aggregationEnd-margin" class="marker aggregation class" refX="1" refY="7" markerWidth="20" markerHeight="28" orient="auto" markerUnits="userSpaceOnUse"><path d="M 18,7 L9,13 L1,7 L9,1 Z" style="stroke-width: 2;"/></marker></defs><defs><marker id="mermaid-svg_class-extensionStart" class="marker extension class" refX="18" refY="7" markerWidth="20" markerHeight="28" orient="auto" markerUnits="userSpaceOnUse"><path d="M 1,7 L18,13 V 1 Z"/></marker></defs><defs><marker id="mermaid-svg_class-extensionEnd" class="marker extension class" refX="1" refY="7" markerWidth="20" markerHeight="28" orient="auto"><path d="M 1,1 V 13 L18,7 Z"/></marker></defs><marker id="mermaid-svg_class-extensionStart-margin" class="marker extension class" refX="18" refY="7" markerWidth="20" markerHeight="28" orient="auto" markerUnits="userSpaceOnUse" viewBox="0 0 20 14"><polygon points="10,7 18,13 18,1" style="stroke-width: 2; stroke-dasharray: 0;"/></marker><defs><marker id="mermaid-svg_class-extensionEnd-margin" class="marker extension class" refX="9" refY="7" markerWidth="20" markerHeight="28" orient="auto" markerUnits="userSpaceOnUse" viewBox="0 0 20 14"><polygon points="10,1 10,13 18,7" style="stroke-width: 2; stroke-dasharray: 0;"/></marker></defs><defs><marker id="mermaid-svg_class-compositionStart" class="marker composition class" refX="18" refY="7" markerWidth="190" markerHeight="240" orient="auto"><path d="M 18,7 L9,13 L1,7 L9,1 Z"/></marker></defs><defs><marker id="mermaid-svg_class-compositionEnd" class="marker composition class" refX="1" refY="7" markerWidth="20" markerHeight="28" orient="auto"><path d="M 18,7 L9,13 L1,7 L9,1 Z"/></marker></defs><defs><marker id="mermaid-svg_class-compositionStart-margin" class="marker composition class" refX="15" refY="7" markerWidth="190" markerHeight="240" orient="auto" markerUnits="userSpaceOnUse"><path viewBox="0 0 15 15" d="M 18,7 L9,13 L1,7 L9,1 Z" style="stroke-width: 0;"/></marker></defs><defs><marker id="mermaid-svg_class-compositionEnd-margin" class="marker composition class" refX="3.5" refY="7" markerWidth="20" markerHeight="28" orient="auto" markerUnits="userSpaceOnUse"><path d="M 18,7 L9,13 L1,7 L9,1 Z" style="stroke-width: 0;"/></marker></defs><defs><marker id="mermaid-svg_class-dependencyStart" class="marker dependency class" refX="6" refY="7" markerWidth="190" markerHeight="240" orient="auto"><path d="M 5,7 L9,13 L1,7 L9,1 Z"/></marker></defs><defs><marker id="mermaid-svg_class-dependencyEnd" class="marker dependency class" refX="13" refY="7" markerWidth="20" markerHeight="28" orient="auto"><path d="M 18,7 L9,13 L14,7 L9,1 Z"/></marker></defs><defs><marker id="mermaid-svg_class-dependencyStart-margin" class="marker dependency class" refX="4" refY="7" markerWidth="190" markerHeight="240" orient="auto" markerUnits="userSpaceOnUse"><path d="M 5,7 L9,13 L1,7 L9,1 Z" style="stroke-width: 0;"/></marker></defs><defs><marker id="mermaid-svg_class-dependencyEnd-margin" class="marker dependency class" refX="16" refY="7" markerWidth="20" markerHeight="28" orient="auto" markerUnits="userSpaceOnUse"><path d="M 18,7 L9,13 L14,7 L9,1 Z" style="stroke-width: 0;"/></marker></defs><defs><marker id="mermaid-svg_class-lollipopStart" class="marker lollipop class" refX="13" refY="7" markerWidth="190" markerHeight="240" orient="auto"><circle fill="transparent" cx="7" cy="7" r="6"/></marker></defs><defs><marker id="mermaid-svg_class-lollipopEnd" class="marker lollipop class" refX="1" refY="7" markerWidth="190" markerHeight="240" orient="auto"><circle fill="transparent" cx="7" cy="7" r="6"/></marker></defs><defs><marker id="mermaid-svg_class-lollipopStart-margin" class="marker lollipop class" refX="13" refY="7" markerWidth="190" markerHeight="240" orient="auto" markerUnits="userSpaceOnUse"><circle fill="transparent" cx="7" cy="7" r="6" stroke-width="2"/></marker></defs><defs><marker id="mermaid-svg_class-lollipopEnd-margin" class="marker lollipop class" refX="1" refY="7" markerWidth="190" markerHeight="240" orient="auto" markerUnits="userSpaceOnUse"><circle fill="transparent" cx="7" cy="7" r="6" stroke-width="2"/></marker></defs><g class="root"><g class="clusters"/><g class="edgePaths"><path d="M196.324,206L196.324,210.167C196.324,214.333,196.324,222.667,243.981,239.143C291.638,255.619,386.951,280.239,434.608,292.549L482.265,304.858" id="mermaid-svg-id_FieldsRouter_AgromonitoringService_1" class=" edge-thickness-normal edge-pattern-solid relation" style=";;;" data-edge="true" data-et="edge" data-id="id_FieldsRouter_AgromonitoringService_1" data-points="W3sieCI6MTk2LjMyNDIxODc1LCJ5IjoyMDZ9LHsieCI6MTk2LjMyNDIxODc1LCJ5IjoyMzF9LHsieCI6NDg4LjA3NDIxODc1LCJ5IjozMDYuMzU4OTM3NjM4MzI4Mzd9XQ==" data-look="classic" marker-end="url(#mermaid-svg_class-dependencyEnd)"/><path d="M676.387,182L676.387,190.167C676.387,198.333,676.387,214.667,676.387,226C676.387,237.333,676.387,243.667,676.387,246.833L676.387,250" id="mermaid-svg-id_SatelliteRouter_AgromonitoringService_2" class=" edge-thickness-normal edge-pattern-solid relation" style=";;;" data-edge="true" data-et="edge" data-id="id_SatelliteRouter_AgromonitoringService_2" data-points="W3sieCI6Njc2LjM4NjcxODc1LCJ5IjoxODJ9LHsieCI6Njc2LjM4NjcxODc1LCJ5IjoyMzF9LHsieCI6Njc2LjM4NjcxODc1LCJ5IjoyNTZ9XQ==" data-look="classic" marker-end="url(#mermaid-svg_class-dependencyEnd)"/><path d="M1258.027,194L1258.027,200.167C1258.027,206.333,1258.027,218.667,1371.823,240.231C1485.62,261.796,1713.212,292.592,1827.008,307.99L1940.804,323.388" id="mermaid-svg-id_RecommendationsRouter_AIAdvisorService_3" class=" edge-thickness-normal edge-pattern-solid relation" style=";;;" data-edge="true" data-et="edge" data-id="id_RecommendationsRouter_AIAdvisorService_3" data-points="W3sieCI6MTI1OC4wMjczNDM3NSwieSI6MTk0fSx7IngiOjEyNTguMDI3MzQzNzUsInkiOjIzMX0seyJ4IjoxOTQ2Ljc1LCJ5IjozMjQuMTkyNjYxNDg5MDE1Mn1d" data-look="classic" marker-end="url(#mermaid-svg_class-dependencyEnd)"/><path d="M2174.426,206L2174.426,210.167C2174.426,214.333,2174.426,222.667,2174.426,232C2174.426,241.333,2174.426,251.667,2174.426,256.833L2174.426,262" id="mermaid-svg-id_SchedulerService_AIAdvisorService_4" class=" edge-thickness-normal edge-pattern-solid relation" style=";;;" data-edge="true" data-et="edge" data-id="id_SchedulerService_AIAdvisorService_4" data-points="W3sieCI6MjE3NC40MjU3ODEyNSwieSI6MjA2fSx7IngiOjIxNzQuNDI1NzgxMjUsInkiOjIzMX0seyJ4IjoyMTc0LjQyNTc4MTI1LCJ5IjoyNjh9XQ==" data-look="classic" marker-end="url(#mermaid-svg_class-dependencyEnd)"/><path d="M2028.563,121.982L1851.67,140.152C1674.777,158.322,1320.992,194.661,1127.935,219.723C934.878,244.785,902.548,258.569,886.383,265.462L870.218,272.354" id="mermaid-svg-id_SchedulerService_AgromonitoringService_5" class=" edge-thickness-normal edge-pattern-solid relation" style=";;;" data-edge="true" data-et="edge" data-id="id_SchedulerService_AgromonitoringService_5" data-points="W3sieCI6MjAyOC41NjI1LCJ5IjoxMjEuOTgyNDEwNDk5MzM5OX0seyJ4Ijo5NjcuMjA3MDMxMjUsInkiOjIzMX0seyJ4Ijo4NjQuNjk5MjE4NzUsInkiOjI3NC43MDcyOTM0ODU1NjA4fV0=" data-look="classic" marker-end="url(#mermaid-svg_class-dependencyEnd)"/></g><g class="edgeLabels"><g class="edgeLabel"><g class="label" data-id="id_FieldsRouter_AgromonitoringService_1" transform="translate(0, 0)"><foreignObject width="0" height="0"><div xmlns="http://www.w3.org/1999/xhtml" class="labelBkg" style="display: table-cell; white-space: nowrap; line-height: 1.5; max-width: 200px; text-align: center;"><span class="edgeLabel "></span></div></foreignObject></g></g><g class="edgeLabel"><g class="label" data-id="id_SatelliteRouter_AgromonitoringService_2" transform="translate(0, 0)"><foreignObject width="0" height="0"><div xmlns="http://www.w3.org/1999/xhtml" class="labelBkg" style="display: table-cell; white-space: nowrap; line-height: 1.5; max-width: 200px; text-align: center;"><span class="edgeLabel "></span></div></foreignObject></g></g><g class="edgeLabel"><g class="label" data-id="id_RecommendationsRouter_AIAdvisorService_3" transform="translate(0, 0)"><foreignObject width="0" height="0"><div xmlns="http://www.w3.org/1999/xhtml" class="labelBkg" style="display: table-cell; white-space: nowrap; line-height: 1.5; max-width: 200px; text-align: center;"><span class="edgeLabel "></span></div></foreignObject></g></g><g class="edgeLabel"><g class="label" data-id="id_SchedulerService_AIAdvisorService_4" transform="translate(0, 0)"><foreignObject width="0" height="0"><div xmlns="http://www.w3.org/1999/xhtml" class="labelBkg" style="display: table-cell; white-space: nowrap; line-height: 1.5; max-width: 200px; text-align: center;"><span class="edgeLabel "></span></div></foreignObject></g></g><g class="edgeLabel"><g class="label" data-id="id_SchedulerService_AgromonitoringService_5" transform="translate(0, 0)"><foreignObject width="0" height="0"><div xmlns="http://www.w3.org/1999/xhtml" class="labelBkg" style="display: table-cell; white-space: nowrap; line-height: 1.5; max-width: 200px; text-align: center;"><span class="edgeLabel "></span></div></foreignObject></g></g></g><g class="nodes"><g class="node default " id="mermaid-svg-classId-FieldsRouter-0" data-look="classic" transform="translate(196.32421875, 107)"><g class="basic label-container outer-path"><path d="M-188.32421875 -99 L188.32421875 -99 L188.32421875 99 L-188.32421875 99" stroke="none" stroke-width="0" fill="#ECECFF" style=""/><path d="M-188.32421875 -99 C-69.77902738031165 -99, 48.76616398937671 -99, 188.32421875 -99 M-188.32421875 -99 C-54.55579595885362 -99, 79.21262683229276 -99, 188.32421875 -99 M188.32421875 -99 C188.32421875 -51.0095269727278, 188.32421875 -3.019053945455596, 188.32421875 99 M188.32421875 -99 C188.32421875 -26.154932549741062, 188.32421875 46.690134900517876, 188.32421875 99 M188.32421875 99 C52.689150936066824 99, -82.94591687786635 99, -188.32421875 99 M188.32421875 99 C108.87235512160758 99, 29.420491493215167 99, -188.32421875 99 M-188.32421875 99 C-188.32421875 36.73952064633437, -188.32421875 -25.52095870733126, -188.32421875 -99 M-188.32421875 99 C-188.32421875 59.1299946305047, -188.32421875 19.259989261009395, -188.32421875 -99" stroke="#9370DB" stroke-width="1.3" fill="none" stroke-dasharray="0 0" style=""/></g><g class="annotation-group text" transform="translate(0, -75)"/><g class="label-group text" transform="translate(-48.8984375, -75)"><g class="label" style="font-weight: bolder" transform="translate(0,-12)"><foreignObject width="97.796875" height="24"><div xmlns="http://www.w3.org/1999/xhtml" style="display: table-cell; white-space: nowrap; line-height: 1.5; max-width: 133px; text-align: center;"><span class="nodeLabel markdown-node-label" style=""><p>FieldsRouter</p></span></div></foreignObject></g></g><g class="members-group text" transform="translate(-176.32421875, -27)"/><g class="methods-group text" transform="translate(-176.32421875, 3)"><g class="label" style="" transform="translate(0,-12)"><foreignObject width="284.171875" height="24"><div xmlns="http://www.w3.org/1999/xhtml" style="display: table-cell; white-space: nowrap; line-height: 1.5; max-width: 312px; text-align: center;"><span class="nodeLabel markdown-node-label" style=""><p>+create_field(payload, db, current_user)</p></span></div></foreignObject></g><g class="label" style="" transform="translate(0,12)"><foreignObject width="205" height="24"><div xmlns="http://www.w3.org/1999/xhtml" style="display: table-cell; white-space: nowrap; line-height: 1.5; max-width: 241px; text-align: center;"><span class="nodeLabel markdown-node-label" style=""><p>+get_fields(db, current_user)</p></span></div></foreignObject></g><g class="label" style="" transform="translate(0,36)"><foreignObject width="303.75" height="24"><div xmlns="http://www.w3.org/1999/xhtml" style="display: table-cell; white-space: nowrap; line-height: 1.5; max-width: 336px; text-align: center;"><span class="nodeLabel markdown-node-label" style=""><p>+get_field_detail(field_id, db, current_user)</p></span></div></foreignObject></g><g class="label" style="" transform="translate(0,60)"><foreignObject width="277.953125" height="24"><div xmlns="http://www.w3.org/1999/xhtml" style="display: table-cell; white-space: nowrap; line-height: 1.5; max-width: 311px; text-align: center;"><span class="nodeLabel markdown-node-label" style=""><p>+delete_field(field_id, db, current_user)</p></span></div></foreignObject></g></g><g class="divider" style=""><path d="M-188.32421875 -51 C-102.70475327256469 -50.99977268068322, -17.085287795129375 -50.99954536136645, 188.32421875 -50.999 M-188.32421875 -51 C-111.00206272073272 -50.99979471000453, -33.67990669146545 -50.99958942000905, 188.32421875 -50.999" stroke="#9370DB" stroke-width="1.3" fill="none" stroke-dasharray="0 0" style=""/></g><g class="divider" style=""><path d="M-188.32421875 -27 C-76.16061644459312 -26.999702206112815, 36.002985860813766 -26.99940441222563, 188.32421875 -26.999 M-188.32421875 -27 C-58.67804376011409 -26.999655789956677, 70.96813122977181 -26.99931157991335, 188.32421875 -26.999" stroke="#9370DB" stroke-width="1.3" fill="none" stroke-dasharray="0 0" style=""/></g></g><g class="node default " id="mermaid-svg-classId-SatelliteRouter-1" data-look="classic" transform="translate(676.38671875, 107)"><g class="basic label-container outer-path"><path d="M-241.73828125 -75 L241.73828125 -75 L241.73828125 75 L-241.73828125 75" stroke="none" stroke-width="0" fill="#ECECFF" style=""/><path d="M-241.73828125 -75 C-106.34104569845437 -75, 29.05618985309127 -75, 241.73828125 -75 M-241.73828125 -75 C-56.79044850078543 -75, 128.15738424842914 -75, 241.73828125 -75 M241.73828125 -75 C241.73828125 -16.60351569238899, 241.73828125 41.79296861522202, 241.73828125 75 M241.73828125 -75 C241.73828125 -20.416376664253683, 241.73828125 34.167246671492634, 241.73828125 75 M241.73828125 75 C70.26468791012192 75, -101.20890542975616 75, -241.73828125 75 M241.73828125 75 C93.3384323935087 75, -55.061416462982606 75, -241.73828125 75 M-241.73828125 75 C-241.73828125 33.671204361766506, -241.73828125 -7.657591276466988, -241.73828125 -75 M-241.73828125 75 C-241.73828125 30.911339383535996, -241.73828125 -13.177321232928008, -241.73828125 -75" stroke="#9370DB" stroke-width="1.3" fill="none" stroke-dasharray="0 0" style=""/></g><g class="annotation-group text" transform="translate(0, -51)"/><g class="label-group text" transform="translate(-56.4609375, -51)"><g class="label" style="font-weight: bolder" transform="translate(0,-12)"><foreignObject width="112.921875" height="24"><div xmlns="http://www.w3.org/1999/xhtml" style="display: table-cell; white-space: nowrap; line-height: 1.5; max-width: 147px; text-align: center;"><span class="nodeLabel markdown-node-label" style=""><p>SatelliteRouter</p></span></div></foreignObject></g></g><g class="members-group text" transform="translate(-229.73828125, -3)"/><g class="methods-group text" transform="translate(-229.73828125, 27)"><g class="label" style="" transform="translate(0,-12)"><foreignObject width="341.09375" height="24"><div xmlns="http://www.w3.org/1999/xhtml" style="display: table-cell; white-space: nowrap; line-height: 1.5; max-width: 363px; text-align: center;"><span class="nodeLabel markdown-node-label" style=""><p>+get_satellite_scenes(field_id, db, current_user)</p></span></div></foreignObject></g><g class="label" style="" transform="translate(0,12)"><foreignObject width="403.015625" height="24"><div xmlns="http://www.w3.org/1999/xhtml" style="display: table-cell; white-space: nowrap; line-height: 1.5; max-width: 427px; text-align: center;"><span class="nodeLabel markdown-node-label" style=""><p>+get_satellite_tile(field_id, layer, z, x, y, db, current_user)</p></span></div></foreignObject></g></g><g class="divider" style=""><path d="M-241.73828125 -27 C-130.38970731365276 -26.999769691888762, -19.0411333773055 -26.999539383777527, 241.73828125 -26.999 M-241.73828125 -27 C-113.65409572602493 -26.9997350767432, 14.430089797950131 -26.9994701534864, 241.73828125 -26.999" stroke="#9370DB" stroke-width="1.3" fill="none" stroke-dasharray="0 0" style=""/></g><g class="divider" style=""><path d="M-241.73828125 -3 C-110.06891309156674 -2.999727661321414, 21.600455066866516 -2.9994553226428287, 241.73828125 -2.999 M-241.73828125 -3 C-116.97053051244757 -2.9997419362996784, 7.797220225104866 -2.999483872599357, 241.73828125 -2.999" stroke="#9370DB" stroke-width="1.3" fill="none" stroke-dasharray="0 0" style=""/></g></g><g class="node default " id="mermaid-svg-classId-RecommendationsRouter-2" data-look="classic" transform="translate(1258.02734375, 107)"><g class="basic label-container outer-path"><path d="M-289.90234375 -87 L289.90234375 -87 L289.90234375 87 L-289.90234375 87" stroke="none" stroke-width="0" fill="#ECECFF" style=""/><path d="M-289.90234375 -87 C-62.16076566841704 -87, 165.58081241316592 -87, 289.90234375 -87 M-289.90234375 -87 C-94.60043992446762 -87, 100.70146390106476 -87, 289.90234375 -87 M289.90234375 -87 C289.90234375 -31.023412376967777, 289.90234375 24.953175246064447, 289.90234375 87 M289.90234375 -87 C289.90234375 -26.81868633592805, 289.90234375 33.3626273281439, 289.90234375 87 M289.90234375 87 C63.224825107931764 87, -163.45269353413647 87, -289.90234375 87 M289.90234375 87 C62.7013474590122 87, -164.4996488319756 87, -289.90234375 87 M-289.90234375 87 C-289.90234375 48.383712454136344, -289.90234375 9.767424908272687, -289.90234375 -87 M-289.90234375 87 C-289.90234375 28.701894881553883, -289.90234375 -29.596210236892233, -289.90234375 -87" stroke="#9370DB" stroke-width="1.3" fill="none" stroke-dasharray="0 0" style=""/></g><g class="annotation-group text" transform="translate(0, -63)"/><g class="label-group text" transform="translate(-97.3515625, -63)"><g class="label" style="font-weight: bolder" transform="translate(0,-12)"><foreignObject width="194.703125" height="24"><div xmlns="http://www.w3.org/1999/xhtml" style="display: table-cell; white-space: nowrap; line-height: 1.5; max-width: 213px; text-align: center;"><span class="nodeLabel markdown-node-label" style=""><p>RecommendationsRouter</p></span></div></foreignObject></g></g><g class="members-group text" transform="translate(-277.90234375, -15)"/><g class="methods-group text" transform="translate(-277.90234375, 15)"><g class="label" style="" transform="translate(0,-12)"><foreignObject width="392.671875" height="24"><div xmlns="http://www.w3.org/1999/xhtml" style="display: table-cell; white-space: nowrap; line-height: 1.5; max-width: 414px; text-align: center;"><span class="nodeLabel markdown-node-label" style=""><p>+get_field_recommendations(field_id, db, current_user)</p></span></div></foreignObject></g><g class="label" style="" transform="translate(0,12)"><foreignObject width="287.734375" height="24"><div xmlns="http://www.w3.org/1999/xhtml" style="display: table-cell; white-space: nowrap; line-height: 1.5; max-width: 315px; text-align: center;"><span class="nodeLabel markdown-node-label" style=""><p>+get_pending_reviews(db, current_user)</p></span></div></foreignObject></g><g class="label" style="" transform="translate(0,36)"><foreignObject width="458.453125" height="24"><div xmlns="http://www.w3.org/1999/xhtml" style="display: table-cell; white-space: nowrap; line-height: 1.5; max-width: 471px; text-align: center;"><span class="nodeLabel markdown-node-label" style=""><p>+review_recommendation(rec_id, review_data, db, current_user)</p></span></div></foreignObject></g></g><g class="divider" style=""><path d="M-289.90234375 -39 C-161.31613166356547 -38.99977822495254, -32.72991957713094 -38.999556449905086, 289.90234375 -38.999 M-289.90234375 -39 C-85.92575051489035 -38.99964819775067, 118.0508427202193 -38.99929639550134, 289.90234375 -38.999" stroke="#9370DB" stroke-width="1.3" fill="none" stroke-dasharray="0 0" style=""/></g><g class="divider" style=""><path d="M-289.90234375 -15 C-171.7419105617302 -14.999796206488606, -53.581477373460444 -14.999592412977213, 289.90234375 -14.999 M-289.90234375 -15 C-83.18903990553505 -14.999643477694644, 123.52426393892989 -14.999286955389286, 289.90234375 -14.999" stroke="#9370DB" stroke-width="1.3" fill="none" stroke-dasharray="0 0" style=""/></g></g><g class="node default " id="mermaid-svg-classId-AgromonitoringService-3" data-look="classic" transform="translate(676.38671875, 355)"><g class="basic label-container outer-path"><path d="M-188.3125 -99 L188.3125 -99 L188.3125 99 L-188.3125 99" stroke="none" stroke-width="0" fill="#ECECFF" style=""/><path d="M-188.3125 -99 C-50.433683913968366 -99, 87.44513217206327 -99, 188.3125 -99 M-188.3125 -99 C-98.41543088844573 -99, -8.518361776891453 -99, 188.3125 -99 M188.3125 -99 C188.3125 -38.527953747323295, 188.3125 21.94409250535341, 188.3125 99 M188.3125 -99 C188.3125 -40.41581277514235, 188.3125 18.1683744497153, 188.3125 99 M188.3125 99 C78.33951417000061 99, -31.633471659998776 99, -188.3125 99 M188.3125 99 C105.71687417682233 99, 23.12124835364466 99, -188.3125 99 M-188.3125 99 C-188.3125 32.62940420969501, -188.3125 -33.74119158060998, -188.3125 -99 M-188.3125 99 C-188.3125 33.4149612558531, -188.3125 -32.1700774882938, -188.3125 -99" stroke="#9370DB" stroke-width="1.3" fill="none" stroke-dasharray="0 0" style=""/></g><g class="annotation-group text" transform="translate(0, -75)"/><g class="label-group text" transform="translate(-88.90625, -75)"><g class="label" style="font-weight: bolder" transform="translate(0,-12)"><foreignObject width="177.8125" height="24"><div xmlns="http://www.w3.org/1999/xhtml" style="display: table-cell; white-space: nowrap; line-height: 1.5; max-width: 202px; text-align: center;"><span class="nodeLabel markdown-node-label" style=""><p>AgromonitoringService</p></span></div></foreignObject></g></g><g class="members-group text" transform="translate(-176.3125, -27)"/><g class="methods-group text" transform="translate(-176.3125, 3)"><g class="label" style="" transform="translate(0,-12)"><foreignObject width="255.703125" height="24"><div xmlns="http://www.w3.org/1999/xhtml" style="display: table-cell; white-space: nowrap; line-height: 1.5; max-width: 291px; text-align: center;"><span class="nodeLabel markdown-node-label" style=""><p>+create_polygon(field_id, geometry)</p></span></div></foreignObject></g><g class="label" style="" transform="translate(0,12)"><foreignObject width="205.9375" height="24"><div xmlns="http://www.w3.org/1999/xhtml" style="display: table-cell; white-space: nowrap; line-height: 1.5; max-width: 246px; text-align: center;"><span class="nodeLabel markdown-node-label" style=""><p>+delete_polygon(polygon_id)</p></span></div></foreignObject></g><g class="label" style="" transform="translate(0,36)"><foreignObject width="246.828125" height="24"><div xmlns="http://www.w3.org/1999/xhtml" style="display: table-cell; white-space: nowrap; line-height: 1.5; max-width: 280px; text-align: center;"><span class="nodeLabel markdown-node-label" style=""><p>+fetch_satellite_scene(polygon_id)</p></span></div></foreignObject></g><g class="label" style="" transform="translate(0,60)"><foreignObject width="263.71875" height="24"><div xmlns="http://www.w3.org/1999/xhtml" style="display: table-cell; white-space: nowrap; line-height: 1.5; max-width: 296px; text-align: center;"><span class="nodeLabel markdown-node-label" style=""><p>+fetch_weather_forecast(polygon_id)</p></span></div></foreignObject></g></g><g class="divider" style=""><path d="M-188.3125 -51 C-78.04609732907252 -50.99970722495142, 32.22030534185495 -50.999414449902844, 188.3125 -50.999 M-188.3125 -51 C-82.94299552834663 -50.99972022700439, 22.426508943306743 -50.999440454008784, 188.3125 -50.999" stroke="#9370DB" stroke-width="1.3" fill="none" stroke-dasharray="0 0" style=""/></g><g class="divider" style=""><path d="M-188.3125 -27 C-82.90342071955965 -26.999720121926902, 22.505658560880704 -26.999440243853805, 188.3125 -26.999 M-188.3125 -27 C-104.45061663005808 -26.999777333200477, -20.588733260116157 -26.999554666400957, 188.3125 -26.999" stroke="#9370DB" stroke-width="1.3" fill="none" stroke-dasharray="0 0" style=""/></g></g><g class="node default " id="mermaid-svg-classId-AIAdvisorService-4" data-look="classic" transform="translate(2174.42578125, 355)"><g class="basic label-container outer-path"><path d="M-227.67578125 -87 L227.67578125 -87 L227.67578125 87 L-227.67578125 87" stroke="none" stroke-width="0" fill="#ECECFF" style=""/><path d="M-227.67578125 -87 C-136.5858227282967 -87, -45.49586420659338 -87, 227.67578125 -87 M-227.67578125 -87 C-102.32001668292973 -87, 23.035747884140534 -87, 227.67578125 -87 M227.67578125 -87 C227.67578125 -44.32535732662259, 227.67578125 -1.6507146532451742, 227.67578125 87 M227.67578125 -87 C227.67578125 -23.797182892715604, 227.67578125 39.40563421456879, 227.67578125 87 M227.67578125 87 C103.71070150800873 87, -20.25437823398255 87, -227.67578125 87 M227.67578125 87 C110.82361033974375 87, -6.0285605705124965 87, -227.67578125 87 M-227.67578125 87 C-227.67578125 42.99328938308012, -227.67578125 -1.0134212338397646, -227.67578125 -87 M-227.67578125 87 C-227.67578125 31.584582939929945, -227.67578125 -23.83083412014011, -227.67578125 -87" stroke="#9370DB" stroke-width="1.3" fill="none" stroke-dasharray="0 0" style=""/></g><g class="annotation-group text" transform="translate(0, -63)"/><g class="label-group text" transform="translate(-66.2578125, -63)"><g class="label" style="font-weight: bolder" transform="translate(0,-12)"><foreignObject width="132.515625" height="24"><div xmlns="http://www.w3.org/1999/xhtml" style="display: table-cell; white-space: nowrap; line-height: 1.5; max-width: 166px; text-align: center;"><span class="nodeLabel markdown-node-label" style=""><p>AIAdvisorService</p></span></div></foreignObject></g></g><g class="members-group text" transform="translate(-215.67578125, -15)"/><g class="methods-group text" transform="translate(-215.67578125, 15)"><g class="label" style="" transform="translate(0,-12)"><foreignObject width="227.265625" height="24"><div xmlns="http://www.w3.org/1999/xhtml" style="display: table-cell; white-space: nowrap; line-height: 1.5; max-width: 271px; text-align: center;"><span class="nodeLabel markdown-node-label" style=""><p>+run_ai_by_field_id(field_id, db)</p></span></div></foreignObject></g><g class="label" style="" transform="translate(0,12)"><foreignObject width="352.65625" height="24"><div xmlns="http://www.w3.org/1999/xhtml" style="display: table-cell; white-space: nowrap; line-height: 1.5; max-width: 380px; text-align: center;"><span class="nodeLabel markdown-node-label" style=""><p>+chat_with_advisor(field_id, text, image_data, db)</p></span></div></foreignObject></g><g class="label" style="" transform="translate(0,36)"><foreignObject width="365.09375" height="24"><div xmlns="http://www.w3.org/1999/xhtml" style="display: table-cell; white-space: nowrap; line-height: 1.5; max-width: 385px; text-align: center;"><span class="nodeLabel markdown-node-label" style=""><p>+evaluate_safety_guardrails(recommendation_text)</p></span></div></foreignObject></g></g><g class="divider" style=""><path d="M-227.67578125 -39 C-119.97941199900549 -38.99976348742791, -12.283042748010985 -38.999526974855826, 227.67578125 -38.999 M-227.67578125 -39 C-135.54041927638505 -38.99979766103916, -43.4050573027701 -38.99959532207832, 227.67578125 -38.999" stroke="#9370DB" stroke-width="1.3" fill="none" stroke-dasharray="0 0" style=""/></g><g class="divider" style=""><path d="M-227.67578125 -15 C-50.20339456621315 -14.999610251943116, 127.2689921175737 -14.999220503886232, 227.67578125 -14.999 M-227.67578125 -15 C-117.64326131345123 -14.999758356994906, -7.610741376902467 -14.999516713989813, 227.67578125 -14.999" stroke="#9370DB" stroke-width="1.3" fill="none" stroke-dasharray="0 0" style=""/></g></g><g class="node default " id="mermaid-svg-classId-MQTTService-5" data-look="classic" transform="translate(1788.24609375, 107)"><g class="basic label-container outer-path"><path d="M-190.31640625 -87 L190.31640625 -87 L190.31640625 87 L-190.31640625 87" stroke="none" stroke-width="0" fill="#ECECFF" style=""/><path d="M-190.31640625 -87 C-51.374496597817114 -87, 87.56741305436577 -87, 190.31640625 -87 M-190.31640625 -87 C-70.79818890032746 -87, 48.72002844934508 -87, 190.31640625 -87 M190.31640625 -87 C190.31640625 -45.109949298169056, 190.31640625 -3.219898596338112, 190.31640625 87 M190.31640625 -87 C190.31640625 -38.72021659648857, 190.31640625 9.559566807022861, 190.31640625 87 M190.31640625 87 C87.05623513071299 87, -16.203935988574017 87, -190.31640625 87 M190.31640625 87 C88.8767364111274 87, -12.562933427745207 87, -190.31640625 87 M-190.31640625 87 C-190.31640625 17.513801818408254, -190.31640625 -51.97239636318349, -190.31640625 -87 M-190.31640625 87 C-190.31640625 23.51809195863534, -190.31640625 -39.96381608272932, -190.31640625 -87" stroke="#9370DB" stroke-width="1.3" fill="none" stroke-dasharray="0 0" style=""/></g><g class="annotation-group text" transform="translate(0, -63)"/><g class="label-group text" transform="translate(-51.1328125, -63)"><g class="label" style="font-weight: bolder" transform="translate(0,-12)"><foreignObject width="102.265625" height="24"><div xmlns="http://www.w3.org/1999/xhtml" style="display: table-cell; white-space: nowrap; line-height: 1.5; max-width: 143px; text-align: center;"><span class="nodeLabel markdown-node-label" style=""><p>MQTTService</p></span></div></foreignObject></g></g><g class="members-group text" transform="translate(-178.31640625, -15)"/><g class="methods-group text" transform="translate(-178.31640625, 15)"><g class="label" style="" transform="translate(0,-12)"><foreignObject width="165.84375" height="24"><div xmlns="http://www.w3.org/1999/xhtml" style="display: table-cell; white-space: nowrap; line-height: 1.5; max-width: 207px; text-align: center;"><span class="nodeLabel markdown-node-label" style=""><p>+start_broker_listener()</p></span></div></foreignObject></g><g class="label" style="" transform="translate(0,12)"><foreignObject width="305.5" height="24"><div xmlns="http://www.w3.org/1999/xhtml" style="display: table-cell; white-space: nowrap; line-height: 1.5; max-width: 331px; text-align: center;"><span class="nodeLabel markdown-node-label" style=""><p>+process_telemetry_packet(topic, payload)</p></span></div></foreignObject></g><g class="label" style="" transform="translate(0,36)"><foreignObject width="155.203125" height="24"><div xmlns="http://www.w3.org/1999/xhtml" style="display: table-cell; white-space: nowrap; line-height: 1.5; max-width: 199px; text-align: center;"><span class="nodeLabel markdown-node-label" style=""><p>+_batch_writer_loop()</p></span></div></foreignObject></g></g><g class="divider" style=""><path d="M-190.31640625 -39 C-75.43956926321061 -38.99969819512871, 39.43726772357877 -38.99939639025742, 190.31640625 -38.999 M-190.31640625 -39 C-65.1212493976461 -38.99967108679877, 60.07390745470781 -38.99934217359754, 190.31640625 -38.999" stroke="#9370DB" stroke-width="1.3" fill="none" stroke-dasharray="0 0" style=""/></g><g class="divider" style=""><path d="M-190.31640625 -15 C-77.44308641110474 -14.999703458776722, 35.43023342779051 -14.999406917553442, 190.31640625 -14.999 M-190.31640625 -15 C-91.59005533442318 -14.999740625748299, 7.136295581153632 -14.999481251496595, 190.31640625 -14.999" stroke="#9370DB" stroke-width="1.3" fill="none" stroke-dasharray="0 0" style=""/></g></g><g class="node default " id="mermaid-svg-classId-SchedulerService-6" data-look="classic" transform="translate(2174.42578125, 107)"><g class="basic label-container outer-path"><path d="M-145.86328125 -99 L145.86328125 -99 L145.86328125 99 L-145.86328125 99" stroke="none" stroke-width="0" fill="#ECECFF" style=""/><path d="M-145.86328125 -99 C-84.27348305687914 -99, -22.683684863758273 -99, 145.86328125 -99 M-145.86328125 -99 C-43.07299802147756 -99, 59.71728520704488 -99, 145.86328125 -99 M145.86328125 -99 C145.86328125 -46.141344554636404, 145.86328125 6.717310890727191, 145.86328125 99 M145.86328125 -99 C145.86328125 -21.43314890812563, 145.86328125 56.13370218374874, 145.86328125 99 M145.86328125 99 C30.546767639589874 99, -84.76974597082025 99, -145.86328125 99 M145.86328125 99 C62.59748601169362 99, -20.668309226612763 99, -145.86328125 99 M-145.86328125 99 C-145.86328125 51.90907213743981, -145.86328125 4.818144274879614, -145.86328125 -99 M-145.86328125 99 C-145.86328125 30.420387084337662, -145.86328125 -38.159225831324676, -145.86328125 -99" stroke="#9370DB" stroke-width="1.3" fill="none" stroke-dasharray="0 0" style=""/></g><g class="annotation-group text" transform="translate(0, -75)"/><g class="label-group text" transform="translate(-67.1484375, -75)"><g class="label" style="font-weight: bolder" transform="translate(0,-12)"><foreignObject width="134.296875" height="24"><div xmlns="http://www.w3.org/1999/xhtml" style="display: table-cell; white-space: nowrap; line-height: 1.5; max-width: 162px; text-align: center;"><span class="nodeLabel markdown-node-label" style=""><p>SchedulerService</p></span></div></foreignObject></g></g><g class="members-group text" transform="translate(-133.86328125, -27)"/><g class="methods-group text" transform="translate(-133.86328125, 3)"><g class="label" style="" transform="translate(0,-12)"><foreignObject width="129.390625" height="24"><div xmlns="http://www.w3.org/1999/xhtml" style="display: table-cell; white-space: nowrap; line-height: 1.5; max-width: 171px; text-align: center;"><span class="nodeLabel markdown-node-label" style=""><p>+start_scheduler()</p></span></div></foreignObject></g><g class="label" style="" transform="translate(0,12)"><foreignObject width="150.78125" height="24"><div xmlns="http://www.w3.org/1999/xhtml" style="display: table-cell; white-space: nowrap; line-height: 1.5; max-width: 192px; text-align: center;"><span class="nodeLabel markdown-node-label" style=""><p>+ai_reasoning_loop()</p></span></div></foreignObject></g><g class="label" style="" transform="translate(0,36)"><foreignObject width="156.109375" height="24"><div xmlns="http://www.w3.org/1999/xhtml" style="display: table-cell; white-space: nowrap; line-height: 1.5; max-width: 197px; text-align: center;"><span class="nodeLabel markdown-node-label" style=""><p>+external_data_loop()</p></span></div></foreignObject></g><g class="label" style="" transform="translate(0,60)"><foreignObject width="200.578125" height="24"><div xmlns="http://www.w3.org/1999/xhtml" style="display: table-cell; white-space: nowrap; line-height: 1.5; max-width: 239px; text-align: center;"><span class="nodeLabel markdown-node-label" style=""><p>+rollup_hourly_aggregates()</p></span></div></foreignObject></g></g><g class="divider" style=""><path d="M-145.86328125 -51 C-37.92995248777689 -50.999630018851086, 70.00337627444623 -50.99926003770218, 145.86328125 -50.999 M-145.86328125 -51 C-77.20552578813542 -50.99976465031202, -8.547770326270836 -50.999529300624026, 145.86328125 -50.999" stroke="#9370DB" stroke-width="1.3" fill="none" stroke-dasharray="0 0" style=""/></g><g class="divider" style=""><path d="M-145.86328125 -27 C-75.5313049746644 -26.999758911304912, -5.199328699328788 -26.999517822609825, 145.86328125 -26.999 M-145.86328125 -27 C-32.44742965076129 -26.999611225489282, 80.96842194847741 -26.999222450978564, 145.86328125 -26.999" stroke="#9370DB" stroke-width="1.3" fill="none" stroke-dasharray="0 0" style=""/></g></g></g></g></g><defs><filter id="mermaid-svg-drop-shadow" height="130%" width="130%"><feDropShadow dx="4" dy="4" stdDeviation="0" flood-opacity="0.06" flood-color="#000000"/></filter></defs><defs><filter id="mermaid-svg-drop-shadow-small" height="150%" width="150%"><feDropShadow dx="2" dy="2" stdDeviation="0" flood-opacity="0.06" flood-color="#000000"/></filter></defs></svg>